<mxfile host="app.diagrams.net" modified="2022-03-08T20:11:53.855Z" agent="5.0 (Macintosh)" etag="BoWzwNUYsAHW4UiefNdG" version="17.0.0" type="github">
  <diagram id="C5RBs43oDa-KdzZeNtuy" name="Page-1">
    <mxGraphModel dx="1460" dy="842" grid="1" gridSize="10" guides="1" tooltips="1" connect="1" arrows="1" fold="1" page="1" pageScale="1" pageWidth="827" pageHeight="1169" math="0" shadow="0">
      <root>
        <mxCell id="WIyWlLk6GJQsqaUBKTNV-0" />
        <mxCell id="WIyWlLk6GJQsqaUBKTNV-1" parent="WIyWlLk6GJQsqaUBKTNV-0" />
        <mxCell id="EO4PhkTodGmFQypd0aeA-0" value="New" style="rounded=1;whiteSpace=wrap;html=1;fillColor=#f5f5f5;fontColor=#333333;strokeColor=#666666;" parent="WIyWlLk6GJQsqaUBKTNV-1" vertex="1">
          <mxGeometry x="394" y="80" width="120" height="60" as="geometry" />
        </mxCell>
        <mxCell id="EO4PhkTodGmFQypd0aeA-1" value="Waiting For Reporter" style="rounded=1;whiteSpace=wrap;html=1;fillColor=#0050ef;strokeColor=#001DBC;fontColor=#ffffff;" parent="WIyWlLk6GJQsqaUBKTNV-1" vertex="1">
          <mxGeometry x="74" y="240" width="120" height="60" as="geometry" />
        </mxCell>
        <mxCell id="EO4PhkTodGmFQypd0aeA-11" value="" style="edgeStyle=orthogonalEdgeStyle;rounded=0;orthogonalLoop=1;jettySize=auto;html=1;startArrow=classic;startFill=1;" parent="WIyWlLk6GJQsqaUBKTNV-1" source="EO4PhkTodGmFQypd0aeA-2" target="EO4PhkTodGmFQypd0aeA-3" edge="1">
          <mxGeometry relative="1" as="geometry" />
        </mxCell>
        <mxCell id="EO4PhkTodGmFQypd0aeA-2" value="In Triage" style="rounded=1;whiteSpace=wrap;html=1;fillColor=#fff2cc;strokeColor=#d6b656;" parent="WIyWlLk6GJQsqaUBKTNV-1" vertex="1">
          <mxGeometry x="394" y="190" width="120" height="60" as="geometry" />
        </mxCell>
        <mxCell id="EO4PhkTodGmFQypd0aeA-12" value="" style="edgeStyle=orthogonalEdgeStyle;rounded=0;orthogonalLoop=1;jettySize=auto;html=1;startArrow=classic;startFill=1;" parent="WIyWlLk6GJQsqaUBKTNV-1" source="EO4PhkTodGmFQypd0aeA-3" target="EO4PhkTodGmFQypd0aeA-4" edge="1">
          <mxGeometry relative="1" as="geometry" />
        </mxCell>
        <mxCell id="EO4PhkTodGmFQypd0aeA-3" value="&lt;div&gt;Selected For Refinement&lt;/div&gt;" style="rounded=1;whiteSpace=wrap;html=1;fillColor=#dae8fc;strokeColor=#6c8ebf;" parent="WIyWlLk6GJQsqaUBKTNV-1" vertex="1">
          <mxGeometry x="394" y="310" width="120" height="60" as="geometry" />
        </mxCell>
        <mxCell id="EO4PhkTodGmFQypd0aeA-13" value="" style="edgeStyle=orthogonalEdgeStyle;rounded=0;orthogonalLoop=1;jettySize=auto;html=1;startArrow=classic;startFill=1;" parent="WIyWlLk6GJQsqaUBKTNV-1" source="EO4PhkTodGmFQypd0aeA-4" target="EO4PhkTodGmFQypd0aeA-5" edge="1">
          <mxGeometry relative="1" as="geometry" />
        </mxCell>
        <mxCell id="EO4PhkTodGmFQypd0aeA-4" value="&lt;div&gt;Confirmed&lt;/div&gt;" style="rounded=1;whiteSpace=wrap;html=1;fillColor=#fff2cc;strokeColor=#d6b656;" parent="WIyWlLk6GJQsqaUBKTNV-1" vertex="1">
          <mxGeometry x="394" y="420" width="120" height="60" as="geometry" />
        </mxCell>
        <mxCell id="EO4PhkTodGmFQypd0aeA-14" value="" style="edgeStyle=orthogonalEdgeStyle;rounded=0;orthogonalLoop=1;jettySize=auto;html=1;startArrow=classic;startFill=1;" parent="WIyWlLk6GJQsqaUBKTNV-1" source="EO4PhkTodGmFQypd0aeA-5" target="EO4PhkTodGmFQypd0aeA-6" edge="1">
          <mxGeometry relative="1" as="geometry" />
        </mxCell>
        <mxCell id="EO4PhkTodGmFQypd0aeA-5" value="Selected For Developement" style="rounded=1;whiteSpace=wrap;html=1;fillColor=#dae8fc;strokeColor=#6c8ebf;" parent="WIyWlLk6GJQsqaUBKTNV-1" vertex="1">
          <mxGeometry x="394" y="530" width="120" height="60" as="geometry" />
        </mxCell>
        <mxCell id="EO4PhkTodGmFQypd0aeA-15" value="" style="edgeStyle=orthogonalEdgeStyle;rounded=0;orthogonalLoop=1;jettySize=auto;html=1;" parent="WIyWlLk6GJQsqaUBKTNV-1" source="EO4PhkTodGmFQypd0aeA-6" target="EO4PhkTodGmFQypd0aeA-8" edge="1">
          <mxGeometry relative="1" as="geometry" />
        </mxCell>
        <mxCell id="EO4PhkTodGmFQypd0aeA-35" value="" style="edgeStyle=orthogonalEdgeStyle;rounded=0;orthogonalLoop=1;jettySize=auto;html=1;startArrow=classic;startFill=1;" parent="WIyWlLk6GJQsqaUBKTNV-1" source="EO4PhkTodGmFQypd0aeA-6" target="EO4PhkTodGmFQypd0aeA-7" edge="1">
          <mxGeometry relative="1" as="geometry" />
        </mxCell>
        <mxCell id="EO4PhkTodGmFQypd0aeA-6" value="In Development" style="rounded=1;whiteSpace=wrap;html=1;fillColor=#dae8fc;strokeColor=#6c8ebf;" parent="WIyWlLk6GJQsqaUBKTNV-1" vertex="1">
          <mxGeometry x="394" y="625" width="120" height="60" as="geometry" />
        </mxCell>
        <mxCell id="EO4PhkTodGmFQypd0aeA-7" value="Workaround Proposed" style="rounded=1;whiteSpace=wrap;html=1;fillColor=#0050ef;fontColor=#ffffff;strokeColor=#001DBC;" parent="WIyWlLk6GJQsqaUBKTNV-1" vertex="1">
          <mxGeometry x="557" y="625" width="120" height="60" as="geometry" />
        </mxCell>
        <mxCell id="EO4PhkTodGmFQypd0aeA-24" value="" style="edgeStyle=orthogonalEdgeStyle;rounded=0;orthogonalLoop=1;jettySize=auto;html=1;" parent="WIyWlLk6GJQsqaUBKTNV-1" source="EO4PhkTodGmFQypd0aeA-8" target="EO4PhkTodGmFQypd0aeA-6" edge="1">
          <mxGeometry relative="1" as="geometry" />
        </mxCell>
        <mxCell id="EO4PhkTodGmFQypd0aeA-8" value="Resolved" style="rounded=1;whiteSpace=wrap;html=1;fillColor=#008a00;fontColor=#ffffff;strokeColor=#005700;" parent="WIyWlLk6GJQsqaUBKTNV-1" vertex="1">
          <mxGeometry x="394" y="730" width="120" height="60" as="geometry" />
        </mxCell>
        <mxCell id="EO4PhkTodGmFQypd0aeA-9" value="Rejected" style="rounded=1;whiteSpace=wrap;html=1;fillColor=#008a00;strokeColor=#005700;fontColor=#ffffff;" parent="WIyWlLk6GJQsqaUBKTNV-1" vertex="1">
          <mxGeometry x="144" y="380" width="120" height="60" as="geometry" />
        </mxCell>
        <mxCell id="EO4PhkTodGmFQypd0aeA-10" value="" style="endArrow=classic;html=1;rounded=0;exitX=0.5;exitY=1;exitDx=0;exitDy=0;startArrow=classic;startFill=1;" parent="WIyWlLk6GJQsqaUBKTNV-1" source="EO4PhkTodGmFQypd0aeA-0" target="EO4PhkTodGmFQypd0aeA-2" edge="1">
          <mxGeometry width="50" height="50" relative="1" as="geometry">
            <mxPoint x="574" y="500" as="sourcePoint" />
            <mxPoint x="624" y="450" as="targetPoint" />
          </mxGeometry>
        </mxCell>
        <mxCell id="EO4PhkTodGmFQypd0aeA-16" value="" style="endArrow=classic;html=1;rounded=0;exitX=1;exitY=0.5;exitDx=0;exitDy=0;entryX=0.5;entryY=0;entryDx=0;entryDy=0;startArrow=classic;startFill=1;edgeStyle=orthogonalEdgeStyle;" parent="WIyWlLk6GJQsqaUBKTNV-1" source="EO4PhkTodGmFQypd0aeA-4" target="EO4PhkTodGmFQypd0aeA-7" edge="1">
          <mxGeometry width="50" height="50" relative="1" as="geometry">
            <mxPoint x="574" y="530" as="sourcePoint" />
            <mxPoint x="624" y="480" as="targetPoint" />
          </mxGeometry>
        </mxCell>
        <mxCell id="EO4PhkTodGmFQypd0aeA-17" value="" style="endArrow=classic;html=1;rounded=0;exitX=0.5;exitY=1;exitDx=0;exitDy=0;startArrow=classic;startFill=1;edgeStyle=orthogonalEdgeStyle;entryX=1;entryY=0.5;entryDx=0;entryDy=0;" parent="WIyWlLk6GJQsqaUBKTNV-1" source="EO4PhkTodGmFQypd0aeA-7" target="EO4PhkTodGmFQypd0aeA-8" edge="1">
          <mxGeometry width="50" height="50" relative="1" as="geometry">
            <mxPoint x="574" y="550" as="sourcePoint" />
            <mxPoint x="584" y="750" as="targetPoint" />
          </mxGeometry>
        </mxCell>
        <mxCell id="EO4PhkTodGmFQypd0aeA-23" value="" style="edgeStyle=orthogonalEdgeStyle;rounded=0;orthogonalLoop=1;jettySize=auto;html=1;" parent="WIyWlLk6GJQsqaUBKTNV-1" source="EO4PhkTodGmFQypd0aeA-22" target="EO4PhkTodGmFQypd0aeA-2" edge="1">
          <mxGeometry relative="1" as="geometry" />
        </mxCell>
        <mxCell id="EO4PhkTodGmFQypd0aeA-33" value="" style="edgeStyle=orthogonalEdgeStyle;rounded=0;orthogonalLoop=1;jettySize=auto;html=1;startArrow=none;startFill=0;" parent="WIyWlLk6GJQsqaUBKTNV-1" source="EO4PhkTodGmFQypd0aeA-22" target="EO4PhkTodGmFQypd0aeA-9" edge="1">
          <mxGeometry relative="1" as="geometry" />
        </mxCell>
        <mxCell id="EO4PhkTodGmFQypd0aeA-34" value="" style="edgeStyle=orthogonalEdgeStyle;rounded=0;orthogonalLoop=1;jettySize=auto;html=1;startArrow=classic;startFill=1;" parent="WIyWlLk6GJQsqaUBKTNV-1" source="EO4PhkTodGmFQypd0aeA-22" target="EO4PhkTodGmFQypd0aeA-1" edge="1">
          <mxGeometry relative="1" as="geometry" />
        </mxCell>
        <mxCell id="EO4PhkTodGmFQypd0aeA-22" value="All" style="ellipse;whiteSpace=wrap;html=1;fillColor=#647687;fontColor=#ffffff;strokeColor=#314354;" parent="WIyWlLk6GJQsqaUBKTNV-1" vertex="1">
          <mxGeometry x="234" y="195" width="80" height="50" as="geometry" />
        </mxCell>
        <mxCell id="EO4PhkTodGmFQypd0aeA-28" value="Reopened" style="rounded=1;whiteSpace=wrap;html=1;fillColor=#fff2cc;strokeColor=#d6b656;" parent="WIyWlLk6GJQsqaUBKTNV-1" vertex="1">
          <mxGeometry x="224" y="530" width="120" height="60" as="geometry" />
        </mxCell>
        <mxCell id="EO4PhkTodGmFQypd0aeA-29" value="" style="endArrow=classic;html=1;rounded=0;exitX=0.5;exitY=1;exitDx=0;exitDy=0;entryX=0;entryY=0.5;entryDx=0;entryDy=0;edgeStyle=orthogonalEdgeStyle;" parent="WIyWlLk6GJQsqaUBKTNV-1" source="EO4PhkTodGmFQypd0aeA-9" target="EO4PhkTodGmFQypd0aeA-28" edge="1">
          <mxGeometry width="50" height="50" relative="1" as="geometry">
            <mxPoint x="854" y="520" as="sourcePoint" />
            <mxPoint x="904" y="470" as="targetPoint" />
          </mxGeometry>
        </mxCell>
        <mxCell id="EO4PhkTodGmFQypd0aeA-30" value="" style="endArrow=classic;html=1;rounded=0;exitX=0.5;exitY=0;exitDx=0;exitDy=0;entryX=0;entryY=0.5;entryDx=0;entryDy=0;edgeStyle=orthogonalEdgeStyle;" parent="WIyWlLk6GJQsqaUBKTNV-1" source="EO4PhkTodGmFQypd0aeA-28" target="EO4PhkTodGmFQypd0aeA-3" edge="1">
          <mxGeometry width="50" height="50" relative="1" as="geometry">
            <mxPoint x="564" y="420" as="sourcePoint" />
            <mxPoint x="614" y="370" as="targetPoint" />
          </mxGeometry>
        </mxCell>
        <mxCell id="EO4PhkTodGmFQypd0aeA-31" value="" style="endArrow=classic;html=1;rounded=0;exitX=0;exitY=0.5;exitDx=0;exitDy=0;entryX=0.5;entryY=1;entryDx=0;entryDy=0;edgeStyle=orthogonalEdgeStyle;" parent="WIyWlLk6GJQsqaUBKTNV-1" source="EO4PhkTodGmFQypd0aeA-8" target="EO4PhkTodGmFQypd0aeA-28" edge="1">
          <mxGeometry width="50" height="50" relative="1" as="geometry">
            <mxPoint x="604" y="800" as="sourcePoint" />
            <mxPoint x="624" y="660" as="targetPoint" />
          </mxGeometry>
        </mxCell>
        <mxCell id="I1poGnv-A_3cTXPYTzj8-0" value="Escalated" style="rounded=1;whiteSpace=wrap;html=1;fillColor=#dae8fc;strokeColor=#6c8ebf;" parent="WIyWlLk6GJQsqaUBKTNV-1" vertex="1">
          <mxGeometry x="74" y="140" width="120" height="60" as="geometry" />
        </mxCell>
        <mxCell id="I1poGnv-A_3cTXPYTzj8-1" value="" style="edgeStyle=orthogonalEdgeStyle;rounded=0;orthogonalLoop=1;jettySize=auto;html=1;startArrow=classic;startFill=1;exitX=0;exitY=0.5;exitDx=0;exitDy=0;entryX=1;entryY=0.5;entryDx=0;entryDy=0;" parent="WIyWlLk6GJQsqaUBKTNV-1" source="EO4PhkTodGmFQypd0aeA-22" target="I1poGnv-A_3cTXPYTzj8-0" edge="1">
          <mxGeometry relative="1" as="geometry">
            <mxPoint x="244" y="230" as="sourcePoint" />
            <mxPoint x="204" y="280" as="targetPoint" />
          </mxGeometry>
        </mxCell>
        <mxCell id="ZDV7OFJW68otOxNT30ZG-0" value="" style="endArrow=none;startArrow=classic;html=1;rounded=0;entryX=1;entryY=0.5;entryDx=0;entryDy=0;exitX=1;exitY=0.5;exitDx=0;exitDy=0;edgeStyle=elbowEdgeStyle;jumpStyle=gap;startFill=1;endFill=0;" parent="WIyWlLk6GJQsqaUBKTNV-1" source="EO4PhkTodGmFQypd0aeA-5" target="EO4PhkTodGmFQypd0aeA-0" edge="1">
          <mxGeometry width="50" height="50" relative="1" as="geometry">
            <mxPoint x="624" y="280" as="sourcePoint" />
            <mxPoint x="674" y="230" as="targetPoint" />
            <Array as="points">
              <mxPoint x="584" y="340" />
            </Array>
          </mxGeometry>
        </mxCell>
        <mxCell id="FI83x1hlp-iSV1WTvFLl-0" value="" style="endArrow=classic;html=1;rounded=0;exitX=1;exitY=0.5;exitDx=0;exitDy=0;entryX=1;entryY=0.5;entryDx=0;entryDy=0;edgeStyle=elbowEdgeStyle;jumpStyle=sharp;" parent="WIyWlLk6GJQsqaUBKTNV-1" source="EO4PhkTodGmFQypd0aeA-2" target="EO4PhkTodGmFQypd0aeA-5" edge="1">
          <mxGeometry width="50" height="50" relative="1" as="geometry">
            <mxPoint x="414" y="440" as="sourcePoint" />
            <mxPoint x="464" y="390" as="targetPoint" />
            <Array as="points">
              <mxPoint x="584" y="310" />
              <mxPoint x="584" y="390" />
            </Array>
          </mxGeometry>
        </mxCell>
        <mxCell id="HzPvBtjkwt8BHotBMD5q-0" value="&lt;div&gt;Create the GitHub issue if there wasn&#39;t one already&lt;/div&gt;&lt;div&gt;&lt;br&gt;&lt;/div&gt;&lt;div&gt;Zube: Backlog&lt;br&gt;&lt;/div&gt;" style="rounded=0;whiteSpace=wrap;html=1;" vertex="1" parent="WIyWlLk6GJQsqaUBKTNV-1">
          <mxGeometry x="680" y="370" width="120" height="80" as="geometry" />
        </mxCell>
        <mxCell id="HzPvBtjkwt8BHotBMD5q-1" value="" style="endArrow=none;dashed=1;html=1;rounded=0;entryX=0;entryY=0.5;entryDx=0;entryDy=0;exitX=0.75;exitY=0;exitDx=0;exitDy=0;edgeStyle=orthogonalEdgeStyle;" edge="1" parent="WIyWlLk6GJQsqaUBKTNV-1" source="EO4PhkTodGmFQypd0aeA-4" target="HzPvBtjkwt8BHotBMD5q-0">
          <mxGeometry width="50" height="50" relative="1" as="geometry">
            <mxPoint x="714" y="500" as="sourcePoint" />
            <mxPoint x="764" y="450" as="targetPoint" />
            <Array as="points">
              <mxPoint x="484" y="410" />
            </Array>
          </mxGeometry>
        </mxCell>
        <mxCell id="HzPvBtjkwt8BHotBMD5q-2" value="Zube: Working, Review, To Test, Testing, etc" style="rounded=0;whiteSpace=wrap;html=1;" vertex="1" parent="WIyWlLk6GJQsqaUBKTNV-1">
          <mxGeometry x="680" y="550" width="120" height="60" as="geometry" />
        </mxCell>
        <mxCell id="HzPvBtjkwt8BHotBMD5q-3" value="" style="endArrow=none;dashed=1;html=1;rounded=0;entryX=0;entryY=0.5;entryDx=0;entryDy=0;exitX=0.75;exitY=0;exitDx=0;exitDy=0;edgeStyle=orthogonalEdgeStyle;elbow=vertical;" edge="1" parent="WIyWlLk6GJQsqaUBKTNV-1" source="EO4PhkTodGmFQypd0aeA-6" target="HzPvBtjkwt8BHotBMD5q-2">
          <mxGeometry width="50" height="50" relative="1" as="geometry">
            <mxPoint x="494" y="430" as="sourcePoint" />
            <mxPoint x="684" y="410" as="targetPoint" />
            <Array as="points">
              <mxPoint x="484" y="610" />
              <mxPoint x="584" y="610" />
              <mxPoint x="584" y="580" />
            </Array>
          </mxGeometry>
        </mxCell>
        <mxCell id="HzPvBtjkwt8BHotBMD5q-4" value="Zube: Next Up" style="rounded=0;whiteSpace=wrap;html=1;" vertex="1" parent="WIyWlLk6GJQsqaUBKTNV-1">
          <mxGeometry x="680" y="480" width="120" height="40" as="geometry" />
        </mxCell>
        <mxCell id="HzPvBtjkwt8BHotBMD5q-6" value="" style="endArrow=none;dashed=1;html=1;rounded=0;elbow=vertical;entryX=0;entryY=0.5;entryDx=0;entryDy=0;exitX=0.75;exitY=0;exitDx=0;exitDy=0;edgeStyle=orthogonalEdgeStyle;" edge="1" parent="WIyWlLk6GJQsqaUBKTNV-1" source="EO4PhkTodGmFQypd0aeA-5" target="HzPvBtjkwt8BHotBMD5q-4">
          <mxGeometry width="50" height="50" relative="1" as="geometry">
            <mxPoint x="684" y="580" as="sourcePoint" />
            <mxPoint x="734" y="530" as="targetPoint" />
          </mxGeometry>
        </mxCell>
        <mxCell id="HzPvBtjkwt8BHotBMD5q-7" value="&lt;div&gt;Zube: To Triage or&lt;/div&gt;&lt;div&gt;not in Zube yet&lt;/div&gt;" style="rounded=0;whiteSpace=wrap;html=1;" vertex="1" parent="WIyWlLk6GJQsqaUBKTNV-1">
          <mxGeometry x="680" y="140" width="120" height="40" as="geometry" />
        </mxCell>
        <mxCell id="HzPvBtjkwt8BHotBMD5q-8" value="" style="endArrow=none;dashed=1;html=1;rounded=0;elbow=vertical;entryX=0;entryY=0.5;entryDx=0;entryDy=0;exitX=0.75;exitY=1;exitDx=0;exitDy=0;edgeStyle=elbowEdgeStyle;" edge="1" parent="WIyWlLk6GJQsqaUBKTNV-1" source="EO4PhkTodGmFQypd0aeA-0" target="HzPvBtjkwt8BHotBMD5q-7">
          <mxGeometry width="50" height="50" relative="1" as="geometry">
            <mxPoint x="654" y="260" as="sourcePoint" />
            <mxPoint x="704" y="210" as="targetPoint" />
            <Array as="points">
              <mxPoint x="574" y="160" />
            </Array>
          </mxGeometry>
        </mxCell>
        <mxCell id="HzPvBtjkwt8BHotBMD5q-10" value="" style="endArrow=none;dashed=1;html=1;rounded=0;exitX=1;exitY=0.25;exitDx=0;exitDy=0;edgeStyle=elbowEdgeStyle;" edge="1" parent="WIyWlLk6GJQsqaUBKTNV-1" source="EO4PhkTodGmFQypd0aeA-3">
          <mxGeometry width="50" height="50" relative="1" as="geometry">
            <mxPoint x="594" y="280" as="sourcePoint" />
            <mxPoint x="554" y="160" as="targetPoint" />
            <Array as="points">
              <mxPoint x="540" y="250" />
              <mxPoint x="554" y="210" />
              <mxPoint x="594" y="180" />
            </Array>
          </mxGeometry>
        </mxCell>
        <mxCell id="HzPvBtjkwt8BHotBMD5q-11" value="Zube: Reopened or not in Zube yet" style="rounded=0;whiteSpace=wrap;html=1;" vertex="1" parent="WIyWlLk6GJQsqaUBKTNV-1">
          <mxGeometry x="130" y="650" width="120" height="60" as="geometry" />
        </mxCell>
        <mxCell id="HzPvBtjkwt8BHotBMD5q-12" value="" style="endArrow=none;dashed=1;html=1;rounded=0;elbow=vertical;exitX=0.5;exitY=0;exitDx=0;exitDy=0;entryX=0.25;entryY=1;entryDx=0;entryDy=0;edgeStyle=elbowEdgeStyle;" edge="1" parent="WIyWlLk6GJQsqaUBKTNV-1" source="HzPvBtjkwt8BHotBMD5q-11" target="EO4PhkTodGmFQypd0aeA-28">
          <mxGeometry width="50" height="50" relative="1" as="geometry">
            <mxPoint x="144" y="640" as="sourcePoint" />
            <mxPoint x="194" y="590" as="targetPoint" />
          </mxGeometry>
        </mxCell>
        <mxCell id="HzPvBtjkwt8BHotBMD5q-13" value="Zube: Done" style="rounded=0;whiteSpace=wrap;html=1;" vertex="1" parent="WIyWlLk6GJQsqaUBKTNV-1">
          <mxGeometry x="34" y="510" width="120" height="60" as="geometry" />
        </mxCell>
        <mxCell id="HzPvBtjkwt8BHotBMD5q-14" value="" style="endArrow=none;dashed=1;html=1;rounded=0;elbow=vertical;exitX=0.5;exitY=0;exitDx=0;exitDy=0;entryX=0;entryY=0.5;entryDx=0;entryDy=0;edgeStyle=elbowEdgeStyle;" edge="1" parent="WIyWlLk6GJQsqaUBKTNV-1" source="HzPvBtjkwt8BHotBMD5q-13" target="EO4PhkTodGmFQypd0aeA-9">
          <mxGeometry width="50" height="50" relative="1" as="geometry">
            <mxPoint x="124" y="580" as="sourcePoint" />
            <mxPoint x="174" y="530" as="targetPoint" />
            <Array as="points">
              <mxPoint x="94" y="410" />
            </Array>
          </mxGeometry>
        </mxCell>
        <mxCell id="HzPvBtjkwt8BHotBMD5q-15" value="" style="endArrow=none;dashed=1;html=1;rounded=0;elbow=vertical;entryX=0.5;entryY=1;entryDx=0;entryDy=0;exitX=0;exitY=0.75;exitDx=0;exitDy=0;edgeStyle=elbowEdgeStyle;" edge="1" parent="WIyWlLk6GJQsqaUBKTNV-1" source="EO4PhkTodGmFQypd0aeA-8" target="HzPvBtjkwt8BHotBMD5q-13">
          <mxGeometry width="50" height="50" relative="1" as="geometry">
            <mxPoint x="24" y="680" as="sourcePoint" />
            <mxPoint x="74" y="630" as="targetPoint" />
            <Array as="points">
              <mxPoint x="214" y="775" />
            </Array>
          </mxGeometry>
        </mxCell>
        <mxCell id="HzPvBtjkwt8BHotBMD5q-17" value="" style="endArrow=none;dashed=1;html=1;rounded=0;exitX=0.75;exitY=0;exitDx=0;exitDy=0;" edge="1" parent="WIyWlLk6GJQsqaUBKTNV-1" source="EO4PhkTodGmFQypd0aeA-2">
          <mxGeometry width="50" height="50" relative="1" as="geometry">
            <mxPoint x="524" y="230" as="sourcePoint" />
            <mxPoint x="484" y="160" as="targetPoint" />
          </mxGeometry>
        </mxCell>
      </root>
    </mxGraphModel>
  </diagram>
</mxfile>
